<svg width="44" height="44" viewBox="0 0 44 44" fill="none" xmlns="http://www.w3.org/2000/svg">
<circle cx="22" cy="22" r="22" fill="white"/>
<path d="M29.875 15V26.375C29.875 26.6071 29.7828 26.8296 29.6187 26.9937C29.4546 27.1578 29.2321 27.25 29 27.25C28.7679 27.25 28.5454 27.1578 28.3813 26.9937C28.2172 26.8296 28.125 26.6071 28.125 26.375V17.112L15.6191 29.6191C15.4549 29.7832 15.2322 29.8755 15 29.8755C14.7678 29.8755 14.5451 29.7832 14.3809 29.6191C14.2168 29.4549 14.1245 29.2322 14.1245 29C14.1245 28.7678 14.2168 28.5451 14.3809 28.3809L26.888 15.875H17.625C17.3929 15.875 17.1704 15.7828 17.0063 15.6187C16.8422 15.4546 16.75 15.2321 16.75 15C16.75 14.7679 16.8422 14.5454 17.0063 14.3813C17.1704 14.2172 17.3929 14.125 17.625 14.125H29C29.2321 14.125 29.4546 14.2172 29.6187 14.3813C29.7828 14.5454 29.875 14.7679 29.875 15Z" fill="#343330"/>
</svg>
